<svg width="168" height="22" viewBox="0 0 168 22" fill="none" xmlns="http://www.w3.org/2000/svg">
<path fill-rule="evenodd" clip-rule="evenodd" d="M10.8 0C4.83532 0 0 4.83532 0 10.8V11.2C0 17.1647 4.83532 22 10.8 22H11.2C17.1647 22 22 17.1647 22 11.2V10.8C22 4.83532 17.1647 0 11.2 0H10.8ZM11.1162 15.1135L18.1139 8.11351L15.8861 5.88649L10.036 11.7385L7.14661 8.67022L4.85339 10.8298L8.85568 15.0798L9.96854 16.2615L11.1162 15.1135Z" fill="white"/>
<path d="M32.032 7.118V10.124H37.09V12.14H32.032V17H29.548V5.12H38.44V7.118H32.032ZM46.9242 14.102H42.3522L41.3802 17H38.8422L43.1802 5.12H46.1502L50.4882 17H47.9142L46.9242 14.102ZM46.3122 12.266L45.1962 8.918L44.6562 7.118H44.6202L44.1162 8.882L42.9642 12.266H46.3122ZM57.2263 11.564L55.5343 13.49V17H53.0503V5.12H55.5343V10.754L60.4123 5.12H63.2923L59.0263 9.962L63.4363 17H60.5923L57.2263 11.564ZM75.2291 15.002V17H66.0671V5.12H74.9771V7.118H68.5511V10.07H73.6091V11.978H68.5511V15.002H75.2291ZM88.2696 13.724C87.9216 14.864 87.3036 15.728 86.4156 16.316C85.5276 16.892 84.4656 17.18 83.2296 17.18C82.0656 17.18 81.0516 16.934 80.1876 16.442C79.3236 15.95 78.6576 15.248 78.1896 14.336C77.7336 13.412 77.5056 12.32 77.5056 11.06C77.5056 9.8 77.7336 8.714 78.1896 7.802C78.6576 6.878 79.3176 6.17 80.1696 5.678C81.0336 5.186 82.0416 4.94 83.1936 4.94C84.4296 4.94 85.4736 5.198 86.3256 5.714C87.1896 6.23 87.7836 6.998 88.1076 8.018L85.8576 8.972C85.6656 8.264 85.3656 7.754 84.9576 7.442C84.5496 7.13 83.9976 6.974 83.3016 6.974C82.2936 6.974 81.5016 7.328 80.9256 8.036C80.3616 8.744 80.0796 9.752 80.0796 11.06C80.0796 12.368 80.3556 13.376 80.9076 14.084C81.4596 14.792 82.2396 15.146 83.2476 15.146C84.6996 15.146 85.6116 14.444 85.9836 13.04L88.2696 13.724ZM101.393 5.12V17H98.9087V11.996H93.6707V17H91.1867V5.12H93.6707V9.998H98.9087V5.12H101.393ZM114.455 15.002V17H105.293V5.12H114.203V7.118H107.777V10.07H112.835V11.978H107.777V15.002H114.455ZM127.496 13.724C127.148 14.864 126.53 15.728 125.642 16.316C124.754 16.892 123.692 17.18 122.456 17.18C121.292 17.18 120.278 16.934 119.414 16.442C118.55 15.95 117.884 15.248 117.416 14.336C116.96 13.412 116.732 12.32 116.732 11.06C116.732 9.8 116.96 8.714 117.416 7.802C117.884 6.878 118.544 6.17 119.396 5.678C120.26 5.186 121.268 4.94 122.42 4.94C123.656 4.94 124.7 5.198 125.552 5.714C126.416 6.23 127.01 6.998 127.334 8.018L125.084 8.972C124.892 8.264 124.592 7.754 124.184 7.442C123.776 7.13 123.224 6.974 122.528 6.974C121.52 6.974 120.728 7.328 120.152 8.036C119.588 8.744 119.306 9.752 119.306 11.06C119.306 12.368 119.582 13.376 120.134 14.084C120.686 14.792 121.466 15.146 122.474 15.146C123.926 15.146 124.838 14.444 125.21 13.04L127.496 13.724ZM134.589 11.564L132.897 13.49V17H130.413V5.12H132.897V10.754L137.775 5.12H140.655L136.389 9.962L140.799 17H137.955L134.589 11.564ZM152.592 15.002V17H143.43V5.12H152.34V7.118H145.914V10.07H150.972V11.978H145.914V15.002H152.592ZM160.3 12.446H158.068V17H155.62V5.12H160.858C162.214 5.12 163.27 5.444 164.026 6.092C164.794 6.728 165.178 7.628 165.178 8.792C165.178 9.644 164.968 10.358 164.548 10.934C164.128 11.51 163.528 11.924 162.748 12.176L165.88 17H163.09L160.3 12.446ZM158.068 10.556H160.534C161.254 10.556 161.782 10.418 162.118 10.142C162.466 9.854 162.64 9.416 162.64 8.828C162.64 8.24 162.466 7.808 162.118 7.532C161.782 7.244 161.254 7.1 160.534 7.1H158.068V10.556Z" fill="white"/>
</svg>
