<svg width="24" height="24" viewBox="0 0 24 24" fill="none" xmlns="http://www.w3.org/2000/svg">
<path fill-rule="evenodd" clip-rule="evenodd" d="M12 24C18.6274 24 24 18.6274 24 12C24 5.37258 18.6274 0 12 0C5.37258 0 0 5.37258 0 12C0 18.6274 5.37258 24 12 24Z" fill="#FFD368"/>
<path d="M9.59148 9.75972L9.58115 9.71965C9.23061 8.36056 10.0482 6.97463 11.4073 6.6241C11.5428 6.58914 11.6811 6.56544 11.8205 6.55324L12.3186 6.50966C13.6941 6.38933 14.9066 7.4068 15.027 8.78226L15.0652 9.21904C15.1708 10.426 14.4414 11.55 13.2961 11.9452L12.8234 12.1082C11.9558 12.4076 11.4034 13.2589 11.4833 14.1732L11.5216 14.61" stroke="white" stroke-width="1.5" stroke-linecap="round" stroke-linejoin="round"/>
<path fill-rule="evenodd" clip-rule="evenodd" d="M11.7919 18.2447C12.3421 18.1966 12.749 17.7116 12.7009 17.1614C12.6528 16.6112 12.1677 16.2042 11.6176 16.2524C11.0674 16.3005 10.6604 16.7855 10.7085 17.3357C10.7567 17.8859 11.2417 18.2929 11.7919 18.2447Z" fill="white"/>
</svg>
