<svg width="24" height="24" viewBox="0 0 24 24" fill="none" xmlns="http://www.w3.org/2000/svg">
<rect x="1" y="1" width="22" height="22" rx="4" fill="#FFD368"/>
<g filter="url(#filter0_d)">
<path fill-rule="evenodd" clip-rule="evenodd" d="M13.1548 5.17121C11.692 4.77613 10.1227 5.07217 8.90276 5.98315L8.74792 6.09877L8.6013 6.21411C8.22636 6.52463 7.95901 6.97364 7.76899 7.43713C7.35312 8.45151 8.24203 9.4015 9.33835 9.4015C9.67511 9.4015 9.94861 9.13572 10.0235 8.80739C10.0798 8.56032 10.172 8.30544 10.3207 8.19439L10.4755 8.07877L10.6172 7.98093C11.1959 7.61231 11.9122 7.51726 12.5717 7.72829L12.9544 7.85079L13.0693 7.89344C13.5546 8.09952 13.8756 8.5767 13.8756 9.11063C13.8756 9.57398 13.5383 9.96874 13.0797 10.0422L12.9811 10.0579L12.804 10.0907C11.107 10.447 9.87801 11.9429 9.87731 13.689L9.87711 14.1969C9.87682 14.9216 10.4641 15.5093 11.1888 15.5096C11.9135 15.5099 12.5012 14.9227 12.5015 14.198L12.5017 13.69L12.5074 13.5796C12.5568 13.1074 12.9181 12.7193 13.397 12.6426L13.4955 12.6269L13.6729 12.5939C15.313 12.2467 16.5 10.7993 16.5 9.11063C16.5 7.39797 15.391 5.88137 13.7561 5.35816L13.3734 5.23567L13.1548 5.17121ZM11.2141 16.3822C10.5099 16.3822 9.93907 16.9531 9.93907 17.6572V17.725C9.93907 18.4292 10.5099 19 11.2141 19H11.2884C11.9926 19 12.5634 18.4292 12.5634 17.725V17.6572C12.5634 16.9531 11.9926 16.3822 11.2884 16.3822H11.2141Z" fill="white"/>
</g>
<defs>
<filter id="filter0_d" x="6.66461" y="4" width="10.8354" height="16" filterUnits="userSpaceOnUse" color-interpolation-filters="sRGB">
<feFlood flood-opacity="0" result="BackgroundImageFix"/>
<feColorMatrix in="SourceAlpha" type="matrix" values="0 0 0 0 0 0 0 0 0 0 0 0 0 0 0 0 0 0 127 0"/>
<feOffset/>
<feGaussianBlur stdDeviation="0.5"/>
<feColorMatrix type="matrix" values="0 0 0 0 0 0 0 0 0 0 0 0 0 0 0 0 0 0 0.1 0"/>
<feBlend mode="normal" in2="BackgroundImageFix" result="effect1_dropShadow"/>
<feBlend mode="normal" in="SourceGraphic" in2="effect1_dropShadow" result="shape"/>
</filter>
</defs>
</svg>
