<svg width="24" height="24" viewBox="0 0 24 24" fill="none" xmlns="http://www.w3.org/2000/svg">
<rect width="24" height="24" fill="black"/>
<path fill-rule="evenodd" clip-rule="evenodd" d="M1.43597 3.18404C1 4.03969 1 5.15979 1 7.4V16.6C1 18.8402 1 19.9603 1.43597 20.816C1.81947 21.5686 2.43139 22.1805 3.18404 22.564C4.03969 23 5.15979 23 7.4 23H16.6C18.8402 23 19.9603 23 20.816 22.564C21.5686 22.1805 22.1805 21.5686 22.564 20.816C23 19.9603 23 18.8402 23 16.6V7.4C23 5.15979 23 4.03969 22.564 3.18404C22.1805 2.43139 21.5686 1.81947 20.816 1.43597C19.9603 1 18.8402 1 16.6 1H7.4C5.15979 1 4.03969 1 3.18404 1.43597C2.43139 1.81947 1.81947 2.43139 1.43597 3.18404ZM8.90276 5.98315C10.1227 5.07217 11.692 4.77613 13.1548 5.17121L13.3734 5.23567L13.7561 5.35816C15.391 5.88137 16.5 7.39797 16.5 9.11063C16.5 10.7993 15.313 12.2467 13.6729 12.5939L13.4955 12.6269L13.397 12.6426C12.9181 12.7193 12.5568 13.1074 12.5074 13.5796L12.5017 13.69L12.5015 14.198C12.5012 14.9227 11.9135 15.5099 11.1888 15.5096C10.4641 15.5093 9.87682 14.9216 9.87711 14.1969L9.87731 13.689C9.87801 11.9429 11.107 10.447 12.804 10.0907L12.9811 10.0579L13.0797 10.0422C13.5383 9.96874 13.8756 9.57398 13.8756 9.11063C13.8756 8.5767 13.5546 8.09952 13.0693 7.89344L12.9544 7.85079L12.5717 7.72829C11.9122 7.51726 11.1959 7.61231 10.6172 7.98093L10.4755 8.07877L10.3207 8.19439C10.172 8.30544 10.0798 8.56032 10.0235 8.80739C9.94861 9.13572 9.67511 9.4015 9.33835 9.4015C8.24203 9.4015 7.35312 8.45151 7.76899 7.43713C7.95901 6.97364 8.22636 6.52463 8.6013 6.21411L8.74792 6.09877L8.90276 5.98315ZM9.93907 17.6572C9.93907 16.9531 10.5099 16.3822 11.2141 16.3822H11.2884C11.9926 16.3822 12.5634 16.9531 12.5634 17.6572V17.725C12.5634 18.4292 11.9926 19 11.2884 19H11.2141C10.5099 19 9.93907 18.4292 9.93907 17.725V17.6572Z" fill="white"/>
</svg>
