<svg width="24" height="24" viewBox="0 0 24 24" fill="none" xmlns="http://www.w3.org/2000/svg">
<rect width="24" height="24" fill="black"/>
<path fill-rule="evenodd" clip-rule="evenodd" d="M1.43597 3.18404C1 4.03969 1 5.15979 1 7.4V16.6C1 18.8402 1 19.9603 1.43597 20.816C1.81947 21.5686 2.43139 22.1805 3.18404 22.564C4.03969 23 5.15979 23 7.4 23H16.6C18.8402 23 19.9603 23 20.816 22.564C21.5686 22.1805 22.1805 21.5686 22.564 20.816C23 19.9603 23 18.8402 23 16.6V7.4C23 5.15979 23 4.03969 22.564 3.18404C22.1805 2.43139 21.5686 1.81947 20.816 1.43597C19.9603 1 18.8402 1 16.6 1H7.4C5.15979 1 4.03969 1 3.18404 1.43597C2.43139 1.81947 1.81947 2.43139 1.43597 3.18404ZM17.0607 9.06066L14.9393 6.93934L12 9.879L9.06066 6.93934L6.93934 9.06066L9.879 12L6.93934 14.9393L9.06066 17.0607L12 14.121L14.9393 17.0607L17.0607 14.9393L14.121 12L17.0607 9.06066Z" fill="white"/>
</svg>
