<svg width="24" height="24" viewBox="0 0 24 24" fill="none" xmlns="http://www.w3.org/2000/svg">
<path fill-rule="evenodd" clip-rule="evenodd" d="M12 24C18.6274 24 24 18.6274 24 12C24 5.37258 18.6274 0 12 0C5.37258 0 0 5.37258 0 12C0 18.6274 5.37258 24 12 24Z" fill="#FDB76C"/>
<path fill-rule="evenodd" clip-rule="evenodd" d="M12 18C12.5523 18 13 17.5523 13 17C13 16.4477 12.5523 16 12 16C11.4477 16 11 16.4477 11 17C11 17.5523 11.4477 18 12 18Z" fill="white"/>
<path fill-rule="evenodd" clip-rule="evenodd" d="M10.8193 7.24807C10.7817 6.57027 11.3212 6 12 6V6C12.6788 6 13.2183 6.57027 13.1807 7.24808L12.7916 14.2512C12.7683 14.6713 12.4208 15 12 15V15C11.5792 15 11.2317 14.6713 11.2084 14.2512L10.8193 7.24807Z" fill="white"/>
</svg>
