<svg width="24" height="24" viewBox="0 0 24 24" fill="none" xmlns="http://www.w3.org/2000/svg">
<path d="M23.25 12C23.25 18.2132 18.2132 23.25 12 23.25C5.7868 23.25 0.75 18.2132 0.75 12C0.75 5.7868 5.7868 0.75 12 0.75C18.2132 0.75 23.25 5.7868 23.25 12Z" stroke="black" stroke-width="1.5"/>
<path fill-rule="evenodd" clip-rule="evenodd" d="M12 18C12.5523 18 13 17.5523 13 17C13 16.4477 12.5523 16 12 16C11.4477 16 11 16.4477 11 17C11 17.5523 11.4477 18 12 18Z" fill="black"/>
<path fill-rule="evenodd" clip-rule="evenodd" d="M10.8193 7.24807C10.7817 6.57027 11.3212 6 12 6C12.6788 6 13.2183 6.57027 13.1807 7.24808L12.7916 14.2512C12.7683 14.6713 12.4208 15 12 15C11.5792 15 11.2317 14.6713 11.2084 14.2512L10.8193 7.24807Z" fill="black"/>
</svg>
